Coordinates
version=1
nRows=11
nColumns=40
inDegrees=yes

Units are S.I. units (second, meters, Newtons, ...)
If the header above contains a line with 'inDegrees', this indicates whether rotational values are in degrees (yes) or radians (no).

endheader
time	pelvis_tilt	pelvis_list	pelvis_rotation	pelvis_tx	pelvis_ty	pelvis_tz	hip_flexion_r	hip_adduction_r	hip_rotation_r	knee_angle_r	knee_angle_r_beta	ankle_angle_r	subtalar_angle_r	mtp_angle_r	hip_flexion_l	hip_adduction_l	hip_rotation_l	knee_angle_l	knee_angle_l_beta	ankle_angle_l	subtalar_angle_l	mtp_angle_l	lumbar_extension	lumbar_bending	lumbar_rotation	arm_flex_r	arm_add_r	arm_rot_r	elbow_flex_r	pro_sup_r	wrist_flex_r	wrist_dev_r	arm_flex_l	arm_add_l	arm_rot_l	elbow_flex_l	pro_sup_l	wrist_flex_l	wrist_dev_l
      5.00000000	      7.94245699	     -7.78594686	     -1.95440069	     -0.26040829	      1.07974142	     -1.01033490	     38.83392212	     -1.27447962	     -6.95715034	     37.30319184	      0.65106352	     -6.01613785	      0.00000000	      0.00000000	     -2.12836147	     -3.52533810	     -9.40664946	     15.79440479	      0.27566437	      6.75056385	      0.00000000	      0.00000000	    -11.47109338	      6.44480625	      0.51995333	     89.25793197	    -10.35878348	     53.96814460	     24.62532904	     85.94632728	      0.00000000	      0.00000000	     89.37247025	    -16.04750009	     55.09938075	     25.52738014	     85.03624945	      0.00000000	      0.00000000
      5.00500000	      7.98044406	     -7.86462613	     -1.96090465	     -0.26041886	      1.07967907	     -1.01080681	     39.13738841	     -1.18324547	     -6.97238698	     36.28153532	      0.63323225	     -5.82898825	      0.00000000	      0.00000000	     -2.15870422	     -3.59922415	     -9.47018018	     15.83585244	      0.27638776	      6.80673215	      0.00000000	      0.00000000	    -11.50830653	      6.51746031	      0.48119304	     89.25335673	    -10.30039599	     53.92227368	     24.62709605	     85.89025800	      0.00000000	      0.00000000	     89.39441287	    -16.12398471	     55.12465524	     25.58500228	     85.08187963	      0.00000000	      0.00000000
      5.01000000	      7.98014221	     -7.78860560	     -2.00021081	     -0.26036172	      1.07950676	     -1.01126402	     39.56359429	     -1.29181855	     -7.11457274	     35.44429266	      0.61861961	     -5.72736078	      0.00000000	      0.00000000	     -2.17537648	     -3.48544670	     -9.52421752	     15.82056673	      0.27612098	      6.87019570	      0.00000000	      0.00000000	    -11.49693191	      6.41347325	      0.48319430	     89.25883773	    -10.31209660	     53.90668446	     24.61015015	     85.88581392	      0.00000000	      0.00000000	     89.41555443	    -16.14287999	     55.09385950	     25.62542257	     85.08203912	      0.00000000	      0.00000000
      5.01500000	      8.00117919	     -7.95564786	     -2.01190215	     -0.25979836	      1.07948408	     -1.01174043	     39.78414555	     -1.10923200	     -7.09956385	     34.35227410	      0.59956029	     -5.49668969	      0.00000000	      0.00000000	     -2.26127596	     -3.64834151	     -9.63120923	     15.80334671	      0.27582043	      6.96293644	      0.00000000	      0.00000000	    -11.45133859	      6.58314357	      0.47254413	     89.21273027	    -10.28609318	     53.94640790	     24.58894625	     85.88719248	      0.00000000	      0.00000000	     89.38493771	    -16.15479809	     55.15878171	     25.59915850	     85.10814136	      0.00000000	      0.00000000
      5.02000000	      8.04892310	     -7.90773498	     -1.96555813	     -0.26031019	      1.07934561	     -1.01216529	     40.15765448	     -1.19737155	     -7.18185231	     33.51112343	      0.58487944	     -5.45346909	      0.00000000	      0.00000000	     -2.23564185	     -3.59140150	     -9.66823254	     15.86450235	      0.27688780	      7.01425513	      0.00000000	      0.00000000	    -11.53856066	      6.49894549	      0.39166821	     89.25780989	    -10.24952186	     53.90599767	     24.60301353	     85.87601526	      0.00000000	      0.00000000	     89.43976647	    -16.14662165	     55.13708458	     25.63857383	     85.10645428	      0.00000000	      0.00000000
      5.02500000	      8.09405779	     -7.89002449	     -1.94736702	     -0.26035333	      1.07925577	     -1.01268228	     40.46369999	     -1.25857826	     -7.24722162	     32.57762148	      0.56858676	     -5.34450518	      0.00000000	      0.00000000	     -2.24329142	     -3.55746262	     -9.72728992	     15.93247260	      0.27807410	      7.08279451	      0.00000000	      0.00000000	    -11.58212883	      6.46586606	      0.32744783	     89.25431723	    -10.21854345	     53.84196174	     24.62465343	     85.86505560	      0.00000000	      0.00000000	     89.45492017	    -16.18401944	     55.11166734	     25.68539943	     85.10476632	      0.00000000	      0.00000000
      5.03000000	      8.18898545	     -8.05146971	     -1.90031890	     -0.26034012	      1.07933940	     -1.01309995	     40.65798247	     -1.12603146	     -7.30501477	     31.63201558	      0.55208282	     -5.22789409	      0.00000000	      0.00000000	     -2.26454791	     -3.75249041	     -9.81628148	     16.11405850	      0.28124338	      7.13741095	      0.00000000	      0.00000000	    -11.69369359	      6.63246609	      0.27951561	     89.27314224	    -10.17921603	     53.71735061	     24.66226317	     85.84784578	      0.00000000	      0.00000000	     89.46929857	    -16.25856540	     55.11742324	     25.79989934	     85.11459883	      0.00000000	      0.00000000
      5.03500000	      8.22532891	     -8.02344984	     -1.87078279	     -0.26034474	      1.07923037	     -1.01353802	     41.03226718	     -1.23432299	     -7.48124101	     30.92671115	      0.53977294	     -5.11946798	      0.00000000	      0.00000000	     -2.29511105	     -3.70174562	     -9.89956927	     16.12111077	      0.28136646	      7.20606585	      0.00000000	      0.00000000	    -11.71966061	      6.57336745	      0.21046415	     89.26500044	    -10.15964379	     53.67736322	     24.68211043	     85.84113789	      0.00000000	      0.00000000	     89.47823581	    -16.31405490	     55.10488107	     25.87933728	     85.10852253	      0.00000000	      0.00000000
      5.04000000	      8.27261459	     -8.09225612	     -1.78578975	     -0.26035911	      1.07922379	     -1.01399436	     41.31307640	     -1.25796095	     -7.63567039	     30.10139579	      0.52536847	     -5.01724500	      0.00000000	      0.00000000	     -2.30306631	     -3.77554390	     -9.92741294	     16.18482870	      0.28247855	      7.25082802	      0.00000000	      0.00000000	    -11.76076104	      6.63918448	      0.10366851	     89.26787177	    -10.11995281	     53.62561046	     24.68326381	     85.83461168	      0.00000000	      0.00000000	     89.49658439	    -16.36392206	     55.09175931	     25.95983610	     85.09993093	      0.00000000	      0.00000000
      5.04500000	      8.36537674	     -8.13393418	     -1.70396374	     -0.26041704	      1.07926493	     -1.01447354	     41.54590676	     -1.31871047	     -7.81518254	     29.29307083	      0.51126053	     -5.05817024	      0.00000000	      0.00000000	     -2.35837808	     -3.81779493	     -9.98865284	     16.24863684	      0.28359221	      7.27562723	      0.00000000	      0.00000000	    -11.85996668	      6.66786602	     -0.01202288	     89.27053278	    -10.06736478	     53.55505717	     24.67700205	     85.82761726	      0.00000000	      0.00000000	     89.51229306	    -16.41007243	     55.06650178	     26.01883085	     85.08908532	      0.00000000	      0.00000000
      5.05000000	      8.42851251	     -8.14402249	     -1.67446384	     -0.26042942	      1.07924168	     -1.01487350	     41.87485929	     -1.37230270	     -7.98066100	     28.64234812	      0.49990328	     -4.89284459	      0.00000000	      0.00000000	     -2.37922331	     -3.81896021	     -9.99181807	     16.33540602	      0.28510662	      7.39157145	      0.00000000	      0.00000000	    -11.92493224	      6.65458480	     -0.06216326	     89.29423237	    -10.05471246	     53.46055738	     24.69674678	     85.81107917	      0.00000000	      0.00000000	     89.52298112	    -16.43218282	     55.01610171	     26.08191831	     85.07675553	      0.00000000	      0.00000000
